<?xml version="1.0" encoding="UTF-8"?>
<svg xmlns="http://www.w3.org/2000/svg" xmlns:xlink="http://www.w3.org/1999/xlink" width="33px" height="36px" viewBox="0 0 33 33" version="1.1">
<g id="surface1">
<path style=" stroke:none;fill-rule:nonzero;fill:rgb(94.901961%,94.901961%,94.901961%);fill-opacity:1;" d="M 33 16.5 C 33 24.746094 26.949219 31.582031 19.042969 32.804688 C 18.863281 32.832031 18.683594 32.859375 18.503906 32.878906 C 17.921875 32.949219 17.332031 32.988281 16.734375 32.996094 C 16.65625 33 16.578125 33 16.5 33 C 16.421875 33 16.34375 33 16.265625 32.996094 C 15.667969 32.988281 15.078125 32.949219 14.496094 32.878906 C 14.316406 32.859375 14.136719 32.832031 13.957031 32.804688 C 6.050781 31.582031 0 24.746094 0 16.5 C 0 7.386719 7.386719 0 16.5 0 C 25.613281 0 33 7.386719 33 16.5 Z M 33 16.5 "/>
<path style=" stroke:none;fill-rule:nonzero;fill:rgb(13.333333%,12.941176%,13.72549%);fill-opacity:1;" d="M 33 16.5 C 33 17.121094 32.964844 17.734375 32.898438 18.339844 C 32.890625 18.40625 32.882812 18.472656 32.875 18.542969 C 32.832031 18.882812 32.78125 19.222656 32.71875 19.558594 C 32.703125 19.625 32.691406 19.691406 32.679688 19.757812 C 31.511719 25.585938 27.277344 30.304688 21.726562 32.15625 C 20.890625 32.316406 20.59375 31.800781 20.59375 31.363281 C 20.59375 30.820312 20.609375 29.042969 20.609375 26.835938 C 20.609375 25.296875 20.082031 24.292969 19.492188 23.78125 C 22.351562 23.460938 25.320312 22.546875 26.5 19.171875 C 26.523438 19.105469 26.542969 19.039062 26.566406 18.972656 C 26.632812 18.765625 26.691406 18.550781 26.742188 18.328125 C 26.757812 18.261719 26.773438 18.195312 26.789062 18.125 C 26.941406 17.394531 27.027344 16.570312 27.027344 15.636719 C 27.027344 13.835938 26.386719 12.363281 25.328125 11.210938 C 25.5 10.792969 26.066406 9.117188 25.167969 6.84375 C 25.167969 6.84375 23.78125 6.398438 20.632812 8.535156 C 19.3125 8.167969 17.902344 7.984375 16.5 7.980469 C 15.097656 7.984375 13.6875 8.167969 12.371094 8.535156 C 9.21875 6.398438 7.832031 6.84375 7.832031 6.84375 C 6.933594 9.117188 7.5 10.792969 7.671875 11.210938 C 6.617188 12.363281 5.972656 13.835938 5.972656 15.636719 C 5.972656 16.570312 6.054688 17.394531 6.210938 18.125 C 6.222656 18.195312 6.238281 18.261719 6.253906 18.328125 C 6.304688 18.550781 6.367188 18.765625 6.433594 18.972656 C 6.453125 19.039062 6.476562 19.105469 6.5 19.171875 C 7.675781 22.539062 10.640625 23.46875 13.488281 23.792969 C 13.015625 24.203125 12.589844 24.933594 12.441406 26 C 11.5 26.421875 9.113281 27.148438 7.640625 24.628906 C 7.640625 24.628906 6.765625 23.042969 5.109375 22.925781 C 5.109375 22.925781 3.5 22.90625 4.996094 23.929688 C 4.996094 23.929688 6.078125 24.4375 6.828125 26.34375 C 6.828125 26.34375 7.796875 29.289062 12.386719 28.289062 C 12.394531 29.667969 12.410156 30.96875 12.410156 31.363281 C 12.410156 31.796875 12.109375 32.308594 11.285156 32.15625 C 5.730469 30.308594 1.488281 25.589844 0.320312 19.757812 C 0.308594 19.691406 0.296875 19.625 0.285156 19.558594 C 0.21875 19.222656 0.167969 18.882812 0.125 18.542969 C 0.117188 18.472656 0.109375 18.40625 0.101562 18.339844 C 0.0351562 17.734375 0 17.121094 0 16.5 C 0 7.386719 7.386719 0 16.5 0 C 25.613281 0 33 7.386719 33 16.5 Z M 33 16.5 "/>
<path style=" stroke:none;fill-rule:nonzero;fill:rgb(13.333333%,12.941176%,13.72549%);fill-opacity:1;" d="M 6.101562 23.441406 C 5.984375 23.386719 5.855469 23.410156 5.816406 23.492188 C 5.78125 23.574219 5.847656 23.6875 5.964844 23.742188 C 6.085938 23.796875 6.210938 23.773438 6.25 23.691406 C 6.289062 23.609375 6.222656 23.496094 6.101562 23.441406 Z M 6.101562 23.441406 "/>
<path style=" stroke:none;fill-rule:nonzero;fill:rgb(13.333333%,12.941176%,13.72549%);fill-opacity:1;" d="M 6.871094 24.09375 C 6.761719 23.976562 6.613281 23.945312 6.53125 24.015625 C 6.453125 24.089844 6.472656 24.246094 6.582031 24.359375 C 6.683594 24.472656 6.839844 24.507812 6.917969 24.4375 C 7 24.363281 6.976562 24.210938 6.871094 24.09375 Z M 6.871094 24.09375 "/>
<path style=" stroke:none;fill-rule:nonzero;fill:rgb(13.333333%,12.941176%,13.72549%);fill-opacity:1;" d="M 7.570312 24.988281 C 7.464844 24.84375 7.304688 24.78125 7.203125 24.851562 C 7.097656 24.921875 7.097656 25.097656 7.199219 25.242188 C 7.300781 25.390625 7.464844 25.457031 7.570312 25.386719 C 7.671875 25.3125 7.671875 25.136719 7.570312 24.988281 Z M 7.570312 24.988281 "/>
<path style=" stroke:none;fill-rule:nonzero;fill:rgb(13.333333%,12.941176%,13.72549%);fill-opacity:1;" d="M 8.371094 25.882812 C 8.226562 25.746094 8.03125 25.71875 7.941406 25.820312 C 7.851562 25.917969 7.890625 26.109375 8.035156 26.242188 C 8.175781 26.378906 8.371094 26.402344 8.460938 26.304688 C 8.554688 26.207031 8.511719 26.015625 8.371094 25.882812 Z M 8.371094 25.882812 "/>
<path style=" stroke:none;fill-rule:nonzero;fill:rgb(13.333333%,12.941176%,13.72549%);fill-opacity:1;" d="M 9.417969 26.5 C 9.230469 26.441406 9.042969 26.5 9.003906 26.632812 C 8.96875 26.761719 9.089844 26.914062 9.277344 26.96875 C 9.464844 27.023438 9.648438 26.964844 9.6875 26.835938 C 9.726562 26.707031 9.605469 26.554688 9.417969 26.5 Z M 9.417969 26.5 "/>
<path style=" stroke:none;fill-rule:nonzero;fill:rgb(13.333333%,12.941176%,13.72549%);fill-opacity:1;" d="M 10.683594 26.695312 C 10.484375 26.699219 10.332031 26.808594 10.332031 26.949219 C 10.332031 27.082031 10.492188 27.191406 10.6875 27.1875 C 10.886719 27.183594 11.042969 27.070312 11.039062 26.9375 C 11.039062 26.800781 10.878906 26.691406 10.683594 26.695312 Z M 10.683594 26.695312 "/>
<path style=" stroke:none;fill-rule:nonzero;fill:rgb(13.333333%,12.941176%,13.72549%);fill-opacity:1;" d="M 12.296875 26.722656 C 12.269531 26.585938 12.097656 26.507812 11.902344 26.542969 C 11.710938 26.578125 11.570312 26.714844 11.59375 26.847656 C 11.621094 26.980469 11.796875 27.0625 11.988281 27.027344 C 12.183594 26.992188 12.320312 26.855469 12.296875 26.722656 Z M 12.296875 26.722656 "/>
</g>
</svg>
